<svg id="logo" xmlns="http://www.w3.org/2000/svg" viewBox="0 0 202.6 179.23"><defs><style>.cls-1,.cls-3,.cls-7,.cls-8{fill:#fff;}.cls-1,.cls-5{stroke:#9abd4b;stroke-width:4.41px;}.cls-1,.cls-12,.cls-13,.cls-17,.cls-5,.cls-8{stroke-miterlimit:10;}.cls-2{fill:#5d7031;}.cls-3,.cls-8{stroke:#fff;stroke-width:6px;}.cls-11,.cls-14,.cls-15,.cls-16,.cls-3{stroke-linejoin:round;}.cls-4{fill:#666565;}.cls-11,.cls-12,.cls-13,.cls-14,.cls-15,.cls-16,.cls-17,.cls-5,.cls-9{fill:none;}.cls-6{fill:#d8ae58;}.cls-10{fill:#666665;}.cls-11,.cls-12,.cls-13{stroke:#666665;}.cls-11,.cls-16{stroke-linecap:round;}.cls-11,.cls-12,.cls-14,.cls-16{stroke-width:2px;}.cls-13{stroke-width:2.1px;}.cls-14,.cls-15,.cls-16,.cls-17{stroke:#d42027;}</style></defs><title>logo</title><g id="_Group_" data-name="&lt;Group&gt;"><circle id="_Path_" data-name="&lt;Path&gt;" class="cls-1" cx="104.66" cy="78.71" r="76.51"/><g id="_Group_2" data-name="&lt;Group&gt;"><path id="_Path_2" data-name="&lt;Path&gt;" class="cls-2" d="M85.93,85.43h2.24L79.7,67.71,71.23,85.43h2.24l-2.24,4.68h2.24L71.23,94.8h7.41v4.06a1.06,1.06,0,0,0,1.06,1.06h0a1.06,1.06,0,0,0,1.06-1.06V94.8h7.41l-2.24-4.68h2.24Z" transform="translate(-5.48 -21.58)"/><path id="_Path_3" data-name="&lt;Path&gt;" class="cls-2" d="M80.76,94.8h7.41l-2.24-4.68h2.24l-2.24-4.68h2.24L79.7,67.71v32.2h0a1.06,1.06,0,0,0,1.06-1.06Z" transform="translate(-5.48 -21.58)"/></g><path id="_Path_4" data-name="&lt;Path&gt;" class="cls-3" d="M163.81,117.71s-10.3-1.19-14.22,7.61c0,0-1.49,6.15-5.46,8,0,0,12.55-3.47,16.67-6.35,0,0,4.59-5.24,6.35-6.53" transform="translate(-5.48 -21.58)"/><g id="_Group_3" data-name="&lt;Group&gt;"><path id="_Path_5" data-name="&lt;Path&gt;" class="cls-2" d="M172.26,81.2h3.3l-12.5-26.15L150.57,81.2h3.3l-3.3,6.91h3.3L150.57,95h10.94v6a1.56,1.56,0,0,0,1.56,1.56h0a1.56,1.56,0,0,0,1.56-1.56V95h10.94l-3.3-6.91h3.3Z" transform="translate(-5.48 -21.58)"/><path id="_Path_6" data-name="&lt;Path&gt;" class="cls-2" d="M164.63,95h10.94l-3.3-6.91h3.3l-3.3-6.91h3.3l-12.5-26.15v47.52h0a1.56,1.56,0,0,0,1.56-1.56Z" transform="translate(-5.48 -21.58)"/></g><g id="_Group_4" data-name="&lt;Group&gt;"><path id="_Path_7" data-name="&lt;Path&gt;" class="cls-2" d="M145.19,83.16h1.93l-7.3-15.28-7.3,15.28h1.93l-1.93,4h1.93l-1.93,4h6.39v3.5a.91.91,0,0,0,.91.91h0a.91.91,0,0,0,.91-.91v-3.5h6.39l-1.93-4h1.93Z" transform="translate(-5.48 -21.58)"/><path id="_Path_8" data-name="&lt;Path&gt;" class="cls-2" d="M140.73,91.24h6.39l-1.93-4h1.93l-1.93-4h1.93l-7.3-15.28V95.65h0a.91.91,0,0,0,.91-.91Z" transform="translate(-5.48 -21.58)"/></g><g id="_Group_5" data-name="&lt;Group&gt;"><path id="_Path_9" data-name="&lt;Path&gt;" class="cls-2" d="M62.84,82.09h2.83L55,60.47,44.27,82.09H47.1l-2.83,5.72H47.1l-2.83,5.72h9.36v4.95A1.31,1.31,0,0,0,55,99.76h0a1.31,1.31,0,0,0,1.34-1.29V93.52h9.36l-2.83-5.72h2.83Z" transform="translate(-5.48 -21.58)"/><path id="_Path_10" data-name="&lt;Path&gt;" class="cls-2" d="M56.31,93.52h9.36l-2.83-5.72h2.83l-2.83-5.72h2.83L55,60.47V99.76h0a1.31,1.31,0,0,0,1.34-1.29Z" transform="translate(-5.48 -21.58)"/></g><path id="_Path_11" data-name="&lt;Path&gt;" class="cls-4" d="M75.74,102.15" transform="translate(-5.48 -21.58)"/><circle id="_Path_12" data-name="&lt;Path&gt;" class="cls-5" cx="104.66" cy="78.71" r="76.51"/><g id="_Group_6" data-name="&lt;Group&gt;"><path id="_Compound_Path_" data-name="&lt;Compound Path&gt;" class="cls-4" d="M33,141.27l-.92-1.89-11.73,5.71-.89-1.83,11.73-5.71-.91-1.87,1.93-.94,2.72,5.59Z" transform="translate(-5.48 -21.58)"/><path id="_Compound_Path_2" data-name="&lt;Compound Path&gt;" class="cls-4" d="M38.54,146.48l-13.06,7.77-1-1.75,6.14-3.65L29.48,147l-6.14,3.65-1-1.75,13.06-7.77,1,1.75-5.07,3,1.1,1.85,5.07-3Z" transform="translate(-5.48 -21.58)"/><path id="_Compound_Path_3" data-name="&lt;Compound Path&gt;" class="cls-4" d="M32.08,157.54l-1.15-1.6-3.1,1.75-1.12-1.56,13.7-7,1.19,1.65-11,10.77-1.19-1.65ZM33.66,156l4.06-3.68,0,0-4.79,2.66Z" transform="translate(-5.48 -21.58)"/><path id="_Compound_Path_4" data-name="&lt;Compound Path&gt;" class="cls-4" d="M48.83,159.52l-11.42,10L36.07,168l7-6.17L35.19,167,34.27,166l6.17-7.15,0,0-7,6.17L32,163.42l11.42-10,1.81,2.07-6,7,0,0,7.71-5Z" transform="translate(-5.48 -21.58)"/><path id="_Compound_Path_5" data-name="&lt;Compound Path&gt;" class="cls-4" d="M49.73,163.35,47.15,166l1.5,1.43L47.15,169l-1.5-1.43-3.41,3.58,2.25,2.15L43,174.92l-3.72-3.55,10.48-11,3.56,3.39-1.5,1.57Z" transform="translate(-5.48 -21.58)"/><path id="_Compound_Path_6" data-name="&lt;Compound Path&gt;" class="cls-4" d="M54.37,170.18l.4-.49c.67-.82.71-1.54.34-1.85a1,1,0,0,0-1.46.35,3,3,0,0,0-.74,1.81l-.39,3.69a6,6,0,0,1-1.42,3.83c-1.39,1.7-3.23,1.77-4.49.74s-1.51-2.83-.14-4.51l1-1.23,1.59,1.3-.89,1.09c-.59.72-.58,1.32-.17,1.65s1,.19,1.59-.5a3.57,3.57,0,0,0,.79-2l.16-2.87c.24-2,.19-2.65,1.51-4.26s3.1-1.84,4.45-.74,1.42,2.92.14,4.49l-.67.82Z" transform="translate(-5.48 -21.58)"/><path id="_Compound_Path_7" data-name="&lt;Compound Path&gt;" class="cls-4" d="M57.79,185.94l1.64-6.21-.55-.35-3.28,5.17-1.71-1.08L62,170.64l2.87,1.82c1.65,1,1.41,3.16.11,5.21s-2.61,2.74-3.78,2.77l-1.66,6.63Zm2.32-8.5.55.35c1.11.71,1.53.71,2.72-1.15.65-1,1-1.95.31-2.37l-1.11-.71Z" transform="translate(-5.48 -21.58)"/><path id="_Compound_Path_8" data-name="&lt;Compound Path&gt;" class="cls-4" d="M63,188.89l-1.79-1,7.28-13.33,1.79,1Z" transform="translate(-5.48 -21.58)"/><path id="_Compound_Path_9" data-name="&lt;Compound Path&gt;" class="cls-4" d="M69,191.85l-2-.91,4.08-14.85,2,.91-3.4,10.81h0l6.06-9.59,2,.91Z" transform="translate(-5.48 -21.58)"/><path id="_Compound_Path_10" data-name="&lt;Compound Path&gt;" class="cls-4" d="M79.82,182.21l-1.28,3.51,1.94.71-.74,2-1.94-.71-1.7,4.65L79,193.47l-.74,2-4.83-1.76,5.21-14.27,4.62,1.68-.74,2Z" transform="translate(-5.48 -21.58)"/><path id="_Compound_Path_11" data-name="&lt;Compound Path&gt;" class="cls-4" d="M84.79,197.41,84.55,191l-.63-.17-1.63,5.9-1.95-.54,4-14.64,3.28.9c1.88.52,2.27,2.61,1.62,5-.6,2.18-1.69,3.38-2.81,3.75l.34,6.83Zm-.25-8.8.63.17c1.27.35,1.67.24,2.26-1.9.32-1.17.37-2.15-.39-2.36l-1.27-.35Z" transform="translate(-5.48 -21.58)"/><path id="_Compound_Path_12" data-name="&lt;Compound Path&gt;" class="cls-4" d="M96.7,196.17l-1.95-.29-.91,3.44-1.9-.28,4.55-14.68,2,.3L98.59,200l-2-.3Zm0-2.22.19-5.48h0l-1.43,5.29Z" transform="translate(-5.48 -21.58)"/><path id="_Compound_Path_13" data-name="&lt;Compound Path&gt;" class="cls-4" d="M107.85,185.49l-1,15.16-2-.14-1.39-8.82h0l-.6,8.68-2-.14,1-15.16,2.14.15,1.3,8.53h0l.58-8.4Z" transform="translate(-5.48 -21.58)"/><path id="_Compound_Path_14" data-name="&lt;Compound Path&gt;" class="cls-4" d="M113.16,189.81l0-1.19c0-.46-.37-1.23-1-1.22s-1,.8-1,1.26l.19,8.76c0,.46.34,1.23,1.05,1.21s1.14-.74,1.11-2l-.05-2.32-1.14,0,0-2.17,3-.07.1,4.69c0,2.06-.84,3.95-2.89,4-2.26,0-3.12-1.8-3.15-3.32l-.19-8.79c0-1.54.74-3.42,3-3.47a3.15,3.15,0,0,1,3.05,3.34l0,1.19Z" transform="translate(-5.48 -21.58)"/><path id="_Compound_Path_15" data-name="&lt;Compound Path&gt;" class="cls-4" d="M122.33,197.75l.21,2.16-4.68.46-1.48-15.12,2-.2,1.27,13Z" transform="translate(-5.48 -21.58)"/><path id="_Compound_Path_16" data-name="&lt;Compound Path&gt;" class="cls-4" d="M124.4,186.46l.62,3.68,2-.34.36,2.14-2,.34.82,4.88,3.07-.52.36,2.14-5.07.86-2.53-15,4.85-.82.36,2.14Z" transform="translate(-5.48 -21.58)"/><path id="_Compound_Path_17" data-name="&lt;Compound Path&gt;" class="cls-4" d="M136.25,197.21l-3.38-5.46-.63.16,1.5,5.93-2,.5-3.72-14.72,3.3-.83c1.89-.48,3.26,1.14,3.86,3.5.55,2.19.2,3.78-.59,4.65l3.67,5.76Zm-4.57-7.53.63-.16c1.28-.32,1.57-.62,1-2.77-.3-1.18-.74-2-1.51-1.85l-1.28.32Z" transform="translate(-5.48 -21.58)"/><path id="_Compound_Path_18" data-name="&lt;Compound Path&gt;" class="cls-4" d="M140.1,184.55l-.2-.59c-.35-1-.94-1.42-1.4-1.26a1,1,0,0,0-.47,1.43,3,3,0,0,0,1.15,1.58L142.1,188a6,6,0,0,1,2.51,3.22c.72,2.07-.19,3.67-1.73,4.2s-3.2-.2-3.91-2.25l-.52-1.5,1.94-.67.46,1.33c.3.88.82,1.19,1.31,1s.7-.77.41-1.61a3.56,3.56,0,0,0-1.3-1.73l-2.36-1.64c-1.57-1.25-2.15-1.55-2.83-3.52s.06-3.6,1.71-4.17,3.23.33,3.89,2.24l.35,1Z" transform="translate(-5.48 -21.58)"/><path id="_Compound_Path_19" data-name="&lt;Compound Path&gt;" class="cls-4" d="M153.12,187l-1.77.86,1.19,3.35-1.73.84-4.52-14.69,1.83-.89,8.74,12.65L155,190Zm-1.25-1.83-2.94-4.63,0,0,1.81,5.18Z" transform="translate(-5.48 -21.58)"/><path id="_Compound_Path_20" data-name="&lt;Compound Path&gt;" class="cls-4" d="M156.24,176.89l-.32-.54c-.54-.92-1.2-1.21-1.62-1a1,1,0,0,0-.18,1.49,3,3,0,0,0,1.44,1.32l3.33,1.64a6,6,0,0,1,3.1,2.66c1.11,1.89.54,3.64-.86,4.46s-3.18.44-4.28-1.43l-.81-1.36,1.77-1,.72,1.22c.47.8,1,1,1.49.73s.53-.89.08-1.66a3.57,3.57,0,0,0-1.62-1.44l-2.64-1.14c-1.79-.91-2.42-1.09-3.48-2.89s-.66-3.54.84-4.43,3.23-.32,4.26,1.42l.54.92Z" transform="translate(-5.48 -21.58)"/><path id="_Compound_Path_21" data-name="&lt;Compound Path&gt;" class="cls-4" d="M162.2,173l-.36-.51c-.61-.87-1.3-1.1-1.7-.82a1,1,0,0,0-.06,1.5,3,3,0,0,0,1.54,1.2l3.45,1.37a6,6,0,0,1,3.3,2.4c1.26,1.79.83,3.58-.5,4.52s-3.14.69-4.38-1.08l-.91-1.3,1.68-1.18.81,1.15c.54.76,1.12.91,1.54.61s.46-.93-.05-1.66a3.56,3.56,0,0,0-1.73-1.3l-2.72-.93c-1.85-.77-2.5-.89-3.7-2.6s-.94-3.48.49-4.48,3.2-.58,4.36,1.07l.61.87Z" transform="translate(-5.48 -21.58)"/><path id="_Compound_Path_22" data-name="&lt;Compound Path&gt;" class="cls-4" d="M168.93,166.26l5.61,6.74c1,1.2,1.49,3.22-.07,4.52-1.72,1.44-3.53.51-4.53-.69l-5.61-6.74c-1-1.2-1.55-3.11.17-4.55C166.06,164.25,167.93,165.06,168.93,166.26Zm-1.55,1.32c-.29-.35-1.07-.78-1.52-.4s-.25,1.28,0,1.6l5.6,6.72c.32.38,1.06.81,1.61.36s.16-1.23-.13-1.58Z" transform="translate(-5.48 -21.58)"/><path id="_Compound_Path_23" data-name="&lt;Compound Path&gt;" class="cls-4" d="M173.67,163.38l-.84-.85c-.32-.32-1.11-.64-1.53-.23a1.18,1.18,0,0,0,.14,1.6l6.15,6.25a1.18,1.18,0,0,0,1.6.16c.42-.41.11-1.21-.21-1.53l-.84-.85,1.46-1.44.84.85a3.14,3.14,0,0,1,.27,4.52,3.11,3.11,0,0,1-4.58-.24L170,165.35a3.11,3.11,0,0,1-.19-4.6,3.15,3.15,0,0,1,4.51.34l.84.85Z" transform="translate(-5.48 -21.58)"/><path id="_Compound_Path_24" data-name="&lt;Compound Path&gt;" class="cls-4" d="M185.51,166.5,184.15,168l-11.31-10.14,1.36-1.52Z" transform="translate(-5.48 -21.58)"/><path id="_Compound_Path_25" data-name="&lt;Compound Path&gt;" class="cls-4" d="M186.74,159.44,185.53,161l2.54,2.5L186.87,165l-10.48-11.24,1.26-1.6L191,159.71l-1.26,1.6Zm-1.92-1.1-4.66-2.89,0,0,3.88,3.87Z" transform="translate(-5.48 -21.58)"/><path id="_Compound_Path_26" data-name="&lt;Compound Path&gt;" class="cls-4" d="M183.88,147.09l-1.19,1.73,10.75,7.38-1.15,1.68-10.75-7.38-1.18,1.72L178.59,151l3.52-5.13Z" transform="translate(-5.48 -21.58)"/><path id="_Compound_Path_27" data-name="&lt;Compound Path&gt;" class="cls-4" d="M196.71,151l-1,1.75-13-7.82,1-1.74Z" transform="translate(-5.48 -21.58)"/><path id="_Compound_Path_28" data-name="&lt;Compound Path&gt;" class="cls-4" d="M190,138.2l7.79,4c1.39.72,2.63,2.38,1.69,4.19-1,2-3.06,1.85-4.44,1.13l-7.79-4c-1.39-.72-2.64-2.26-1.61-4.26C186.55,137.45,188.58,137.48,190,138.2Zm-.92,1.82c-.4-.21-1.29-.3-1.56.22s.27,1.27.64,1.46l7.77,4c.44.23,1.29.34,1.62-.3s-.33-1.2-.74-1.41Z" transform="translate(-5.48 -21.58)"/><path id="_Compound_Path_29" data-name="&lt;Compound Path&gt;" class="cls-4" d="M190,130l14,5.79-.78,1.88-8.81-1.47v0l8,3.32-.78,1.88-14-5.79.82-2,8.51,1.47v0l-7.79-3.21Z" transform="translate(-5.48 -21.58)"/></g><g id="_Group_7" data-name="&lt;Group&gt;"><g id="_Group_8" data-name="&lt;Group&gt;"><path id="_Compound_Path_30" data-name="&lt;Compound Path&gt;" class="cls-4" d="M80.64,155.5H79.12l-.3,2.05H77.33l1.81-8.82h1.58l1.81,8.82H81Zm-.25-1.27-.48-3.16h0l-.49,3.16Z" transform="translate(-5.48 -21.58)"/><path id="_Compound_Path_31" data-name="&lt;Compound Path&gt;" class="cls-4" d="M89,148.73v8.82H87.41l-1.55-5.05h0v5.05H84.26v-8.82h1.66l1.46,4.89h0v-4.89Z" transform="translate(-5.48 -21.58)"/><path id="_Compound_Path_32" data-name="&lt;Compound Path&gt;" class="cls-4" d="M93.94,151.29v-.69a.76.76,0,0,0-1.51,0v5.09a.77.77,0,0,0,.79.72c.59,0,.9-.42.9-1.13v-1.35h-.88v-1.26h2.29v2.72a2.15,2.15,0,0,1-2.31,2.28c-1.75,0-2.38-1.08-2.38-2v-5.1c0-.9.63-2,2.38-2a2.09,2.09,0,0,1,2.31,2v.69Z" transform="translate(-5.48 -21.58)"/><path id="_Compound_Path_33" data-name="&lt;Compound Path&gt;" class="cls-4" d="M101,156.29v1.26H97.36v-8.82h1.58v7.56Z" transform="translate(-5.48 -21.58)"/><path id="_Compound_Path_34" data-name="&lt;Compound Path&gt;" class="cls-4" d="M104.29,150v2.17h1.6v1.26h-1.6v2.87h2.41v1.26h-4v-8.82h3.81V150Z" transform="translate(-5.48 -21.58)"/><path id="_Compound_Path_35" data-name="&lt;Compound Path&gt;" class="cls-4" d="M112,157.55l-1.5-3.55H110v3.55h-1.56v-8.82H111c1.51,0,2.23,1.11,2.23,2.52a2.64,2.64,0,0,1-1.32,2.53l1.66,3.77Zm-2-4.89h.5c1,0,1.3-.13,1.3-1.41,0-.71-.16-1.26-.78-1.26h-1Z" transform="translate(-5.48 -21.58)"/><path id="_Compound_Path_36" data-name="&lt;Compound Path&gt;" class="cls-4" d="M118,151.2v-.37c0-.62-.33-1-.71-1a.68.68,0,0,0-.71.69,1.45,1.45,0,0,0,.44,1.08l1.58,1.8a3,3,0,0,1,1,2.24,2.08,2.08,0,0,1-2.33,2,2,2,0,0,1-2.29-2v-.92h1.59v.82c0,.54.3.81.71.81a.72.72,0,0,0,.71-.81,1.75,1.75,0,0,0-.52-1.2l-1.31-1.35c-.83-1-1.19-1.26-1.19-2.47a2.32,2.32,0,0,1,4.59,0v.62Z" transform="translate(-5.48 -21.58)"/><path id="_Compound_Path_37" data-name="&lt;Compound Path&gt;" class="cls-4" d="M121.42,156H123v1.58h-1.58Z" transform="translate(-5.48 -21.58)"/><path id="_Compound_Path_38" data-name="&lt;Compound Path&gt;" class="cls-4" d="M129.46,150.58v5.09a2.07,2.07,0,0,1-2.28,2c-1.74,0-2.36-1.08-2.36-2v-5.09c0-.91.62-2,2.36-2A2.06,2.06,0,0,1,129.46,150.58Zm-1.58,0a.78.78,0,0,0-.71-.74.77.77,0,0,0-.78.72v5.08a.77.77,0,0,0,.78.76.79.79,0,0,0,.71-.76Z" transform="translate(-5.48 -21.58)"/><path id="_Compound_Path_39" data-name="&lt;Compound Path&gt;" class="cls-4" d="M134.87,157.55l-1.5-3.55h-.5v3.55H131.3v-8.82h2.63c1.51,0,2.23,1.11,2.23,2.52a2.64,2.64,0,0,1-1.32,2.53l1.66,3.77Zm-2-4.89h.5c1,0,1.3-.13,1.3-1.41,0-.71-.16-1.26-.78-1.26h-1Z" transform="translate(-5.48 -21.58)"/><path id="_Compound_Path_40" data-name="&lt;Compound Path&gt;" class="cls-4" d="M141,151.29v-.69a.76.76,0,0,0-1.51,0v5.09a.77.77,0,0,0,.79.72c.59,0,.9-.42.9-1.13v-1.35h-.88v-1.26h2.29v2.72a2.15,2.15,0,0,1-2.31,2.28c-1.75,0-2.38-1.08-2.38-2v-5.1c0-.9.63-2,2.38-2a2.09,2.09,0,0,1,2.31,2v.69Z" transform="translate(-5.48 -21.58)"/></g></g><g id="_Group_9" data-name="&lt;Group&gt;"><g id="_Group_10" data-name="&lt;Group&gt;"><path id="_Compound_Path_41" data-name="&lt;Compound Path&gt;" class="cls-4" d="M86.2,52.84v2.41H88v1.4H86.2v3.19h2.68v1.4H84.45V51.44h4.23v1.4Z" transform="translate(-5.48 -21.58)"/><path id="_Compound_Path_42" data-name="&lt;Compound Path&gt;" class="cls-4" d="M94,54.19v-.41c0-.69-.36-1.06-.78-1.06a.75.75,0,0,0-.78.77,1.61,1.61,0,0,0,.49,1.2l1.75,2a3.32,3.32,0,0,1,1.13,2.49,2.31,2.31,0,0,1-2.59,2.2,2.27,2.27,0,0,1-2.55-2.2v-1h1.76v.91c0,.6.34.9.78.9a.8.8,0,0,0,.78-.9,1.94,1.94,0,0,0-.57-1.33L92,56.24c-.92-1.09-1.32-1.4-1.32-2.75a2.58,2.58,0,0,1,5.1,0v.69Z" transform="translate(-5.48 -21.58)"/><path id="_Compound_Path_43" data-name="&lt;Compound Path&gt;" class="cls-4" d="M102.93,52.83h-1.81v8.42H99.37V52.83H97.58V51.44h5.35Z" transform="translate(-5.48 -21.58)"/><path id="_Compound_Path_44" data-name="&lt;Compound Path&gt;" class="cls-4" d="M104,59.49h1.75v1.75H104Z" transform="translate(-5.48 -21.58)"/><path id="_Compound_Path_45" data-name="&lt;Compound Path&gt;" class="cls-4" d="M111.7,51.44h1.75v9.81H111.7v-8.4h-.78v-1Z" transform="translate(-5.48 -21.58)"/><path id="_Compound_Path_46" data-name="&lt;Compound Path&gt;" class="cls-4" d="M115.47,55.26c0-.14,0-1.25,0-1.37a2.46,2.46,0,0,1,2.77-2.58,2.32,2.32,0,0,1,2.56,2.2v4.93a2.73,2.73,0,0,1-2.66,2.93,2.26,2.26,0,0,1-2.44-2.2V58.4h1.68v.77a.76.76,0,0,0,.76.8c.67,0,.9-.74.9-1.53V56.89a1.43,1.43,0,0,1-1.19.55A2.15,2.15,0,0,1,115.47,55.26Zm1.79,0a.81.81,0,0,0,.87.78c.56,0,.92-.27.92-.52v-2a.87.87,0,0,0-.8-.81c-.7,0-1,.38-1,1.18C117.27,54,117.26,55.14,117.26,55.26Z" transform="translate(-5.48 -21.58)"/><path id="_Compound_Path_47" data-name="&lt;Compound Path&gt;" class="cls-4" d="M128.47,58.44a2.83,2.83,0,1,1-5.66,0A2.53,2.53,0,0,1,124.43,56a2.48,2.48,0,0,1-1.29-2.17,2.5,2.5,0,0,1,5,0A2.45,2.45,0,0,1,126.85,56,2.54,2.54,0,0,1,128.47,58.44Zm-1.79,0c0-.91-.24-1.6-1-1.75-.81.15-1.05.84-1.05,1.75s.35,1.53,1.19,1.53C126.42,60,126.68,59.16,126.68,58.44Zm-1.89-4.54a.91.91,0,1,0,1.7,0c0-.7-.28-1.19-.81-1.19S124.79,53.22,124.79,53.91Z" transform="translate(-5.48 -21.58)"/><path id="_Compound_Path_48" data-name="&lt;Compound Path&gt;" class="cls-4" d="M135.81,57.42c0,.14,0,1.25,0,1.37A2.45,2.45,0,0,1,133,61.37a2.32,2.32,0,0,1-2.56-2.2V54.26a2.73,2.73,0,0,1,2.63-2.94,2.26,2.26,0,0,1,2.45,2.2v.67h-1.69v-.66a.76.76,0,0,0-.76-.81c-.67,0-.87.76-.87,1.54V55.8a1.37,1.37,0,0,1,1.19-.55A2.15,2.15,0,0,1,135.81,57.42Zm-1.79,0a.81.81,0,0,0-.88-.77c-.55,0-.9.25-.9.5v2a.84.84,0,0,0,.8.8c.67,0,1-.38,1-1.18C134,58.68,134,57.56,134,57.42Z" transform="translate(-5.48 -21.58)"/></g></g><g id="_Group_11" data-name="&lt;Group&gt;"><circle id="_Path_13" data-name="&lt;Path&gt;" class="cls-6" cx="104.75" cy="14.11" r="3.91"/><ellipse id="_Path_14" data-name="&lt;Path&gt;" class="cls-7" cx="108.48" cy="33.45" rx="0.76" ry="0.47" transform="translate(-1.96 55.1) rotate(-39.52)"/></g><g id="_Group_12" data-name="&lt;Group&gt;"><circle id="_Path_15" data-name="&lt;Path&gt;" class="cls-6" cx="82.59" cy="19.3" r="3.91"/><ellipse id="_Path_16" data-name="&lt;Path&gt;" class="cls-7" cx="86.31" cy="38.63" rx="0.76" ry="0.47" transform="translate(-10.33 42.18) rotate(-39.52)"/></g><g id="_Group_13" data-name="&lt;Group&gt;"><circle id="_Path_17" data-name="&lt;Path&gt;" class="cls-6" cx="126.15" cy="19.3" r="3.91"/><ellipse id="_Path_18" data-name="&lt;Path&gt;" class="cls-7" cx="129.88" cy="38.63" rx="0.76" ry="0.47" transform="translate(-0.37 69.91) rotate(-39.52)"/></g><ellipse id="_Path_19" data-name="&lt;Path&gt;" class="cls-7" cx="82.59" cy="20.59" rx="1.98" ry="1.04"/><ellipse id="_Path_20" data-name="&lt;Path&gt;" class="cls-7" cx="104.75" cy="15.45" rx="1.98" ry="1.04"/><ellipse id="_Path_21" data-name="&lt;Path&gt;" class="cls-7" cx="126.15" cy="20.59" rx="1.98" ry="1.04"/><path id="_Path_22" data-name="&lt;Path&gt;" class="cls-8" d="M122.37,91.58s-2.84-1.5-4.25-1.55c0,0-11.15-10.55-13.73-12,0,0-6.74,11-9.7,11.89,0,0-.82,1,2.67,1.26,0,0,3.3,0,3.64.39,0,0,1.16.44,1.07,1.07" transform="translate(-5.48 -21.58)"/><path id="_Path_23" data-name="&lt;Path&gt;" class="cls-8" d="M74.78,94.08a29.1,29.1,0,0,0-12.83-3.5s-2.33.5-4.17,4.33c0,0,0,.67,1.17,1.33" transform="translate(-5.48 -21.58)"/><path id="_Path_24" data-name="&lt;Path&gt;" class="cls-8" d="M54.5,112.23C53,112,41.31,117,41.31,117c-23.64,14.8-32.84,12.62-32.84,12.62,0-5,8.94-19.19,8.94-19.19,4.69-5.76,1.92-9.6,1.92-9.6C8.88,79.24,10.17,79.12,10.17,79.12,15.94,79,38.11,89.26,38.11,89.26A107.69,107.69,0,0,0,48.56,94l5.1,2c1.46.84,13.2.5,13.2.5,23.6-6.77,94.08-6.32,94.08-6.32l7.77.57s30.44,3.68,35.07,11.93c0,0-7.24,3.78-11.49,7.78,0,0,6.11-.65,7.49-1l5.29-.41s.41.43-7.67,6.28a80.78,80.78,0,0,1-12.5,4.75l-7.33,1.55c-6,1.5-11.69,4.37-16.77,5.42,0,0-14.73,3-39,1.32s-16.63-2.73-35.71-7.35S66.5,114.15,54.5,112.23Z" transform="translate(-5.48 -21.58)"/><path id="_Path_25" data-name="&lt;Path&gt;" class="cls-8" d="M121.79,122s-3.62,15.24-10.26,17.35a26.2,26.2,0,0,1-5.1-8.39,29.15,29.15,0,0,1-1.69-6.4s.3-2.41,2.26-2.57c0,0,3.17,1.06,4.68,0" transform="translate(-5.48 -21.58)"/><path id="_Path_26" data-name="&lt;Path&gt;" class="cls-8" d="M82,118.63a39.21,39.21,0,0,1-9.8,10.09s-2.82,3-4.06,2.71c-.75-.17-.29-2.15-.11-4.88a22.05,22.05,0,0,0-5.42-8.65s-1.83-1.46,0-2.32c0,0,.37.12,5-1" transform="translate(-5.48 -21.58)"/><text x="-5.48" y="-21.58"></text><g id="_Group_14" data-name="&lt;Group&gt;"><path id="_Path_27" data-name="&lt;Path&gt;" class="cls-9" d="M44.27,116.61" transform="translate(-5.48 -21.58)"/></g><g id="_Group_15" data-name="&lt;Group&gt;"><path id="_Path_28" data-name="&lt;Path&gt;" class="cls-9" d="M44.27,91.19" transform="translate(-5.48 -21.58)"/></g><g id="_Group_16" data-name="&lt;Group&gt;"><polygon id="_Path_29" data-name="&lt;Path&gt;" class="cls-10" points="8.01 64.57 29.42 72.77 7.38 66.47 8.01 64.57"/></g><g id="_Group_17" data-name="&lt;Group&gt;"><polygon id="_Path_30" data-name="&lt;Path&gt;" class="cls-10" points="12.28 74.67 23.75 76.99 12.05 76.66 12.28 74.67"/></g><g id="_Group_18" data-name="&lt;Group&gt;"><polygon id="_Path_31" data-name="&lt;Path&gt;" class="cls-10" points="13.44 85.23 23.75 83.96 13.88 87.18 13.44 85.23"/></g><g id="_Group_19" data-name="&lt;Group&gt;"><polygon id="_Path_32" data-name="&lt;Path&gt;" class="cls-10" points="10.24 90.88 27.42 88.06 10.68 92.83 10.24 90.88"/></g><g id="_Group_20" data-name="&lt;Group&gt;"><polygon id="_Path_33" data-name="&lt;Path&gt;" class="cls-10" points="6.26 97.18 28.42 90.78 6.9 99.08 6.26 97.18"/></g><g id="_Group_21" data-name="&lt;Group&gt;"><polygon id="_Path_34" data-name="&lt;Path&gt;" class="cls-10" points="3.25 102.72 28.15 95.03 3.91 104.61 3.25 102.72"/></g><path id="_Path_35" data-name="&lt;Path&gt;" class="cls-10" d="M191.37,100.47a.84.84,0,0,0-.64-.83c-.07,0-.54-.16-.67-.19a2.33,2.33,0,0,0-1,0,3.58,3.58,0,0,0-1.1.42,2,2,0,0,0-1,1c-.22.36-.12,1.18.28,1.37.89.43,1.44,1.13,2.44.85a1.2,1.2,0,0,0,.89-.37,1.9,1.9,0,0,0,.47-.93,2.07,2.07,0,0,0,.21-.58" transform="translate(-5.48 -21.58)"/><path id="_Path_36" data-name="&lt;Path&gt;" class="cls-11" d="M48.69,113.43s4.59-6.26,44.92,9.76c0,0-.76-.12,11.13,3.3" transform="translate(-5.48 -21.58)"/><path id="_Path_37" data-name="&lt;Path&gt;" class="cls-12" d="M119.83,128.2c5.55.2,16.6.58,24.31.46,0,0,1.61,0,4.24-.11" transform="translate(-5.48 -21.58)"/><g id="_Group_22" data-name="&lt;Group&gt;"><path id="_Path_38" data-name="&lt;Path&gt;" class="cls-10" d="M163.8,117.81a17,17,0,0,0-4.24.34c-.35.06-.69.17-1,.25s-.67.21-1,.32a8.23,8.23,0,0,0-1,.39,7.45,7.45,0,0,0-.95.45c-.3.18-.62.32-.91.52l-.85.6c-.28.21-.52.46-.78.68a4.94,4.94,0,0,0-.72.74c-.22.27-.46.51-.67.79l-.57.86a17.59,17.59,0,0,0-1,1.82l0-.1a18.4,18.4,0,0,1-.79,2.46,17.11,17.11,0,0,1-1.12,2.33,12.49,12.49,0,0,1-1.57,2.13,8.65,8.65,0,0,1-1,.91,4.47,4.47,0,0,1-.57.4l-.61.35-.55-1.5c2.83-.86,5.63-1.88,8.4-2.89,1.38-.52,2.77-1,4.12-1.56.68-.26,1.35-.54,2-.84s1.28-.62,1.87-1l-.15.13c1.07-1.11,2.16-2.17,3.29-3.2q.85-.78,1.74-1.5a14.88,14.88,0,0,1,1.88-1.36.1.1,0,0,1,.14,0,.11.11,0,0,1,0,.12c-1.06,1.07-2,2.29-2.94,3.46l-2.84,3.54a.6.6,0,0,1-.13.12l0,0c-.33.23-.65.46-1,.68l-1,.59c-.68.36-1.37.71-2.06,1s-1.39.61-2.1.88-1.41.54-2.13.77q-2.14.73-4.31,1.33c-1.45.4-2.89.81-4.35,1.17a.8.8,0,0,1-.57-1.49h0l.48-.25a3.19,3.19,0,0,0,.46-.29,7.13,7.13,0,0,0,.87-.71,11.08,11.08,0,0,0,1.46-1.81,15.79,15.79,0,0,0,1.13-2.1,17.35,17.35,0,0,0,.83-2.24l0-.06,0,0a18.51,18.51,0,0,1,1.13-1.94l.67-.9c.23-.29.51-.55.77-.82a5.58,5.58,0,0,1,.83-.75c.3-.23.57-.48.88-.68l.95-.58c.32-.19.66-.33,1-.49a8,8,0,0,1,1-.42,8.74,8.74,0,0,1,1-.34c.35-.09.7-.21,1.06-.27s.71-.15,1.08-.19a17.27,17.27,0,0,1,4.34-.09.1.1,0,0,1,.09.11A.1.1,0,0,1,163.8,117.81Z" transform="translate(-5.48 -21.58)"/></g><g id="_Group_23" data-name="&lt;Group&gt;"><path id="_Path_39" data-name="&lt;Path&gt;" class="cls-10" d="M122.37,91.58c-.71-.27-1.43-.51-2.15-.74-.36-.11-.72-.2-1.08-.28a4.15,4.15,0,0,0-1-.12H118l-.15-.12c-2.35-1.93-4.67-3.9-7-5.85-1.15-1-2.31-2-3.48-2.92-.58-.48-1.16-1-1.74-1.42-.29-.23-.58-.46-.88-.67s-.57-.39-.84-.56l1.33-.35c-.68,1.13-1.41,2.2-2.14,3.28S101.61,84,100.8,85s-1.63,2.06-2.54,3a19.1,19.1,0,0,1-1.46,1.4,9.22,9.22,0,0,1-.85.64,4,4,0,0,1-1.07.51l.32-.21a.24.24,0,0,0,.06-.15.28.28,0,0,0,0-.14s0,0,0,0,0,0,.05.05a1.06,1.06,0,0,0,.25.14,2.54,2.54,0,0,0,.33.13,10.34,10.34,0,0,0,1.55.33h0c.63,0,1.24.1,1.87.18.31,0,.62.08.93.15l.47.12.25.09a.75.75,0,0,1,.29.19l-.09-.06a2.71,2.71,0,0,1,.7.51.84.84,0,0,1,.29.77.73.73,0,0,0-.44-.58,3,3,0,0,0-.7-.28l-.09-.06s-.06,0-.11,0l-.2,0-.44,0-.9,0c-.61,0-1.22,0-1.82.07h0a10.71,10.71,0,0,1-1.77-.18,3.71,3.71,0,0,1-.47-.12,2.3,2.3,0,0,1-.5-.22,1.31,1.31,0,0,1-.54-.57,1.06,1.06,0,0,1,.14-1.09l.08-.11.24-.1a4.71,4.71,0,0,0,1.29-1A17.62,17.62,0,0,0,97,86.93c.8-1,1.56-2,2.29-3s1.45-2.1,2.16-3.16,1.39-2.16,2.07-3.23l.54-.85.79.5a12.14,12.14,0,0,1,1,.71c.33.24.63.48.93.73.61.49,1.19,1,1.77,1.49,1.15,1,2.26,2.06,3.37,3.11,2.2,2.11,4.35,4.27,6.42,6.51l-.27-.11a4.85,4.85,0,0,1,1.19.32,10.8,10.8,0,0,1,1.06.48A18.83,18.83,0,0,1,122.37,91.58Z" transform="translate(-5.48 -21.58)"/></g><g id="_Group_24" data-name="&lt;Group&gt;"><path id="_Path_40" data-name="&lt;Path&gt;" class="cls-10" d="M116.94,91.62,105.06,81l12.53,9.91a.5.5,0,1,1-.62.78Z" transform="translate(-5.48 -21.58)"/></g><g id="_Group_25" data-name="&lt;Group&gt;"><path id="_Path_41" data-name="&lt;Path&gt;" class="cls-10" d="M112.13,91.56l-7.87-7.66,8.53,6.91a.5.5,0,0,1-.63.78Z" transform="translate(-5.48 -21.58)"/></g><g id="_Group_26" data-name="&lt;Group&gt;"><path id="_Path_42" data-name="&lt;Path&gt;" class="cls-10" d="M107.84,91.21,103,86.53l5.52,3.9a.5.5,0,0,1-.58.82Z" transform="translate(-5.48 -21.58)"/></g><g id="_Group_27" data-name="&lt;Group&gt;"><path id="_Path_43" data-name="&lt;Path&gt;" class="cls-10" d="M104.19,91.79l-3.89-3.68L104.8,91a.5.5,0,1,1-.54.85Z" transform="translate(-5.48 -21.58)"/></g><g id="_Group_28" data-name="&lt;Group&gt;"><path id="_Path_44" data-name="&lt;Path&gt;" class="cls-10" d="M74.78,94.08c-1.09-.34-2.16-.63-3.23-.91-.53-.14-1.07-.25-1.6-.38s-1.07-.22-1.6-.34-1.07-.21-1.6-.29-1.07-.18-1.61-.25-1.08-.13-1.61-.21l-1.62-.16.25,0-.2.06-.28.11a4.55,4.55,0,0,0-.56.31,8.42,8.42,0,0,0-1.06.85,10,10,0,0,0-1,1.06c-.31.38-.59.78-.87,1.2l0-.21c0-.05,0,0,0,0a.34.34,0,0,0,0,.07.7.7,0,0,0,0,.16,1.79,1.79,0,0,0,.15.36,4.13,4.13,0,0,0,.54.74,2.61,2.61,0,0,1-.92-.36,1.69,1.69,0,0,1-.42-.35,1.57,1.57,0,0,1-.18-.25l-.07-.15a.73.73,0,0,1-.06-.22v-.05l.05-.15a13.09,13.09,0,0,1,.62-1.5,9.59,9.59,0,0,1,.89-1.41,6.85,6.85,0,0,1,1.2-1.24,6.41,6.41,0,0,1,.74-.51c.13-.08.27-.15.42-.22a3,3,0,0,1,.53-.19l.1,0H62a24.85,24.85,0,0,1,3.44.34,23.42,23.42,0,0,1,3.35.83,20.55,20.55,0,0,1,3.17,1.35A13.09,13.09,0,0,1,74.78,94.08Z" transform="translate(-5.48 -21.58)"/></g><path id="_Path_45" data-name="&lt;Path&gt;" class="cls-10" d="M158.27,96.87l-.11-.19a.59.59,0,0,0-.45-.58l-.47-.13a1.63,1.63,0,0,0-.72,0,2.51,2.51,0,0,0-.77.3,2.39,2.39,0,0,0-.84,1c-.15.25-.2.64.08.77a2.91,2.91,0,0,0,2,.53.84.84,0,0,0,.62-.26,1.33,1.33,0,0,0,.33-.65,1.45,1.45,0,0,0,.15-.4C158.17,97.27,158.31,97,158.27,96.87Z" transform="translate(-5.48 -21.58)"/><path id="_Path_46" data-name="&lt;Path&gt;" class="cls-10" d="M143.9,97l-.07-.11a.35.35,0,0,0-.27-.35l-.28-.08a1,1,0,0,0-.44,0,1.52,1.52,0,0,0-.47.18,1.45,1.45,0,0,0-.51.59c-.09.15-.12.39,0,.47a1.76,1.76,0,0,0,1.2.32.51.51,0,0,0,.38-.16.81.81,0,0,0,.2-.4.88.88,0,0,0,.09-.24C143.84,97.26,143.93,97.08,143.9,97Z" transform="translate(-5.48 -21.58)"/><path id="_Path_47" data-name="&lt;Path&gt;" class="cls-10" d="M69.65,93.69l-.07-.11a.35.35,0,0,0-.27-.35L69,93.14a1,1,0,0,0-.44,0,1.52,1.52,0,0,0-.47.18,1.45,1.45,0,0,0-.51.59c-.09.15-.12.39,0,.47a1.76,1.76,0,0,0,1.2.32.51.51,0,0,0,.38-.16.81.81,0,0,0,.2-.4.88.88,0,0,0,.09-.24C69.59,93.93,69.68,93.74,69.65,93.69Z" transform="translate(-5.48 -21.58)"/><path id="_Path_48" data-name="&lt;Path&gt;" class="cls-10" d="M61.79,94.72l0-.07a.23.23,0,0,0-.17-.23l-.18-.05a.63.63,0,0,0-.28,0,1,1,0,0,0-.3.12.93.93,0,0,0-.33.38c-.06.1-.08.25,0,.3a1.13,1.13,0,0,0,.77.21.33.33,0,0,0,.24-.1.52.52,0,0,0,.13-.25.56.56,0,0,0,.06-.16S61.81,94.75,61.79,94.72Z" transform="translate(-5.48 -21.58)"/><path id="_Path_49" data-name="&lt;Path&gt;" class="cls-10" d="M64.77,92.72l0-.05a.17.17,0,0,0-.13-.17l-.13,0a.46.46,0,0,0-.21,0,.72.72,0,0,0-.22.08.68.68,0,0,0-.24.28c0,.07-.06.18,0,.22a.83.83,0,0,0,.56.15.24.24,0,0,0,.18-.07.38.38,0,0,0,.09-.19.41.41,0,0,0,0-.11S64.79,92.74,64.77,92.72Z" transform="translate(-5.48 -21.58)"/><path id="_Path_50" data-name="&lt;Path&gt;" class="cls-13" d="M160.81,127c5.08-1,10.75-3.92,16.77-5.42l7.33-1.55a80.78,80.78,0,0,0,12.5-4.75c8.08-5.85,7.67-6.28,7.67-6.28l-5.29.41c-1.37.38-7.49,1-7.49,1,4.25-4,11.49-7.78,11.49-7.78-4.62-8.25-35.07-11.93-35.07-11.93l-7.77-.57s-70.48-.45-94.08,6.32c0,0-11.74.34-13.2-.5l-5.1-2a107.69,107.69,0,0,1-10.45-4.69S15.94,79,10.17,79.12c0,0-1.29.12,9.17,21.67,0,0,2.77,3.84-1.92,9.6,0,0-8.94,14.19-8.94,19.19,0,0,9.2,2.19,32.84-12.62,0,0,11.7-5,13.19-4.72" transform="translate(-5.48 -21.58)"/><path id="_Path_51" data-name="&lt;Path&gt;" class="cls-14" d="M197.7,108.14" transform="translate(-5.48 -21.58)"/><path id="_Path_52" data-name="&lt;Path&gt;" class="cls-10" d="M148.53,102.53l-.07-.11a.35.35,0,0,0-.27-.35l-.28-.08a1,1,0,0,0-.44,0,1.52,1.52,0,0,0-.47.18,1.45,1.45,0,0,0-.51.59c-.09.15-.12.39,0,.47a1.76,1.76,0,0,0,1.2.32.51.51,0,0,0,.38-.16.81.81,0,0,0,.2-.4.88.88,0,0,0,.09-.24C148.47,102.77,148.56,102.58,148.53,102.53Z" transform="translate(-5.48 -21.58)"/><path id="_Path_53" data-name="&lt;Path&gt;" class="cls-10" d="M114.57,98.34l-.07-.11a.35.35,0,0,0-.27-.35l-.28-.08a1,1,0,0,0-.44,0A1.52,1.52,0,0,0,113,98a1.45,1.45,0,0,0-.51.59c-.09.15-.12.39,0,.47a1.76,1.76,0,0,0,1.2.32.51.51,0,0,0,.38-.16.81.81,0,0,0,.2-.4.88.88,0,0,0,.09-.24C114.51,98.58,114.6,98.4,114.57,98.34Z" transform="translate(-5.48 -21.58)"/><path id="_Path_54" data-name="&lt;Path&gt;" class="cls-10" d="M79.69,100.33l-.11-.19a.59.59,0,0,0-.45-.58l-.47-.13a1.63,1.63,0,0,0-.72,0,2.51,2.51,0,0,0-.77.3,2.39,2.39,0,0,0-.84,1c-.15.25-.2.64.08.77a2.91,2.91,0,0,0,2,.53.84.84,0,0,0,.62-.26,1.33,1.33,0,0,0,.33-.65,1.45,1.45,0,0,0,.15-.4C79.59,100.73,79.74,100.43,79.69,100.33Z" transform="translate(-5.48 -21.58)"/><path id="_Path_55" data-name="&lt;Path&gt;" class="cls-10" d="M83.18,109.26l-.11-.19a.59.59,0,0,0-.45-.58l-.47-.13a1.63,1.63,0,0,0-.72,0,2.51,2.51,0,0,0-.77.3,2.39,2.39,0,0,0-.84,1c-.15.25-.2.64.08.77a2.91,2.91,0,0,0,2,.53.84.84,0,0,0,.62-.26,1.33,1.33,0,0,0,.33-.65,1.45,1.45,0,0,0,.15-.4C83.08,109.66,83.23,109.35,83.18,109.26Z" transform="translate(-5.48 -21.58)"/><path id="_Path_56" data-name="&lt;Path&gt;" class="cls-10" d="M90.46,102.53l-.07-.11a.35.35,0,0,0-.27-.35l-.28-.08a1,1,0,0,0-.44,0,1.52,1.52,0,0,0-.47.18,1.45,1.45,0,0,0-.51.59c-.09.15-.12.39,0,.47a1.76,1.76,0,0,0,1.2.32.51.51,0,0,0,.38-.16.81.81,0,0,0,.2-.4.88.88,0,0,0,.09-.24C90.4,102.77,90.49,102.58,90.46,102.53Z" transform="translate(-5.48 -21.58)"/><path id="_Path_57" data-name="&lt;Path&gt;" class="cls-10" d="M104.15,96.28l0-.08a.25.25,0,0,0-.19-.25l-.2-.06a.71.71,0,0,0-.31,0,1.09,1.09,0,0,0-.34.13,1,1,0,0,0-.36.42c-.07.11-.09.28,0,.33a1.26,1.26,0,0,0,.86.23.36.36,0,0,0,.27-.11.58.58,0,0,0,.14-.28.63.63,0,0,0,.06-.18S104.17,96.32,104.15,96.28Z" transform="translate(-5.48 -21.58)"/><path id="_Path_58" data-name="&lt;Path&gt;" class="cls-10" d="M125.66,101.79l0-.08a.25.25,0,0,0-.19-.25l-.2-.06a.71.71,0,0,0-.31,0,1.09,1.09,0,0,0-.34.13,1,1,0,0,0-.36.42c-.07.11-.09.28,0,.33a1.26,1.26,0,0,0,.86.23.36.36,0,0,0,.27-.11.58.58,0,0,0,.14-.28.63.63,0,0,0,.06-.18S125.68,101.83,125.66,101.79Z" transform="translate(-5.48 -21.58)"/><path id="_Path_59" data-name="&lt;Path&gt;" class="cls-10" d="M156.06,103.39l0-.08a.25.25,0,0,0-.19-.25l-.2-.06a.71.71,0,0,0-.31,0,1.09,1.09,0,0,0-.34.13,1,1,0,0,0-.36.42c-.07.11-.09.28,0,.33a1.26,1.26,0,0,0,.86.23.36.36,0,0,0,.27-.11.58.58,0,0,0,.14-.28.63.63,0,0,0,.06-.18S156.08,103.43,156.06,103.39Z" transform="translate(-5.48 -21.58)"/><path id="_Path_60" data-name="&lt;Path&gt;" class="cls-10" d="M196.43,107.45s-4.18,4.18-5.63,3.45c0,0,7.36,4,15.36-2.77Z" transform="translate(-5.48 -21.58)"/><g id="_Group_29" data-name="&lt;Group&gt;"><path id="_Path_61" data-name="&lt;Path&gt;" class="cls-10" d="M195.94,103.72s-1.15.59-2.82,1.56c-.83.49-1.79,1.07-2.8,1.73a20.79,20.79,0,0,0-2.95,2.26,3.15,3.15,0,0,0-.92,1.34.35.35,0,0,0,0,.22.83.83,0,0,0,.15.23.93.93,0,0,0,.51.25,3.28,3.28,0,0,0,1.46-.15,5.18,5.18,0,0,0,.72-.24,5.64,5.64,0,0,0,.68-.26c.88-.35,1.59-.73,2.09-1s.8-.39.8-.39l.06.08s-.23.23-.67.6a7.35,7.35,0,0,1-.81.64,10.66,10.66,0,0,1-1.12.76,7.64,7.64,0,0,1-1.47.71,3.79,3.79,0,0,1-2,.25,1.65,1.65,0,0,1-1.38-1.93,3.84,3.84,0,0,1,1.3-1.73,21.39,21.39,0,0,1,3.19-2.17c1.05-.61,2.07-1.12,2.94-1.55,1.75-.85,2.94-1.34,2.94-1.34Z" transform="translate(-5.48 -21.58)"/></g><g id="_Group_30" data-name="&lt;Group&gt;"><path id="_Path_62" data-name="&lt;Path&gt;" class="cls-10" d="M171.86,96a30.43,30.43,0,0,0-3.72,6,18,18,0,0,0-1.82,6.59,10.21,10.21,0,0,0,.34,3.28,9,9,0,0,0,1.42,2.89,16.2,16.2,0,0,0,2.19,2.42,23.24,23.24,0,0,0,2.66,2.08l.25.17.05.12a3.83,3.83,0,0,0,.24.41,4.51,4.51,0,0,0,.3.42,5.1,5.1,0,0,0,.73.74,3.79,3.79,0,0,0,.43.29,2.77,2.77,0,0,0,.48.23,2.63,2.63,0,0,0,.53.15,4.53,4.53,0,0,0,.58.07l0,.2a3.65,3.65,0,0,1-.61.19,2.75,2.75,0,0,1-.65.07,3.55,3.55,0,0,1-.67-.07,3.47,3.47,0,0,1-.65-.2,4.64,4.64,0,0,1-1.16-.68,5.93,5.93,0,0,1-.51-.45,4,4,0,0,1-.47-.54l.3.29a16.14,16.14,0,0,1-1.64-.87,13.88,13.88,0,0,1-1.55-1.07,10.66,10.66,0,0,1-2.54-2.86,11.52,11.52,0,0,1-1.5-7.39,18.36,18.36,0,0,1,2.45-6.88,28.61,28.61,0,0,1,4.36-5.7Z" transform="translate(-5.48 -21.58)"/></g><g id="_Group_31" data-name="&lt;Group&gt;"><path id="_Path_63" data-name="&lt;Path&gt;" class="cls-10" d="M174.38,101.27a15.41,15.41,0,0,0-.51,1.85,17.27,17.27,0,0,0-.32,1.88,14.1,14.1,0,0,0-.12,1.89c0,.31,0,.63,0,.94l.09.93.17.91a8.41,8.41,0,0,0,.24.89,4.33,4.33,0,0,0,.32.86,5.93,5.93,0,0,0,.39.82l.47.77c.17.25.38.46.57.69l.29.34.34.29.67.59-.19-.11a21.9,21.9,0,0,0,2.67.76,9.94,9.94,0,0,0,1.3.19,3.4,3.4,0,0,0,.56,0,.81.81,0,0,0,.19,0c.07,0,0,0,0,0l-.45.73v-1l0-1c0-.64-.12-1.28-.22-1.89,0-.31-.13-.6-.19-.9a5.57,5.57,0,0,0-.29-.82,1.75,1.75,0,0,0-.19-.37,2.21,2.21,0,0,0-.21-.33,3.38,3.38,0,0,0-.24-.29l-.28-.24-.38-.34,0-.19a12.46,12.46,0,0,1-.09-1.4,11.7,11.7,0,0,1,0-1.39,6.56,6.56,0,0,1,.73-2.68l.19.07a9.41,9.41,0,0,0,.12,2.58c.07.42.16.85.25,1.27s.21.84.31,1.23l-.41-.54.58.34a4.81,4.81,0,0,1,.5.42,2.94,2.94,0,0,1,.42.48,3.16,3.16,0,0,1,.34.52,7.42,7.42,0,0,1,.51,1.08,8.88,8.88,0,0,1,.32,1.1,11.22,11.22,0,0,1,.28,2.19c0,.36,0,.73,0,1.09s0,.71-.09,1.11l-.07.55-.38.18a2.42,2.42,0,0,1-.62.23,2.75,2.75,0,0,1-.52.06,5.26,5.26,0,0,1-.88-.06,11.88,11.88,0,0,1-1.52-.35,26.21,26.21,0,0,1-2.81-1l-.13-.06-.05-.05-.74-.73L175,115l-.31-.42c-.2-.28-.42-.55-.6-.85l-.48-.92a7,7,0,0,1-.38-1,5.14,5.14,0,0,1-.29-1,9.41,9.41,0,0,1-.2-1l-.1-1v-1c0-.33,0-.66.06-1a14.75,14.75,0,0,1,.3-1.95,17.37,17.37,0,0,1,1.22-3.71Z" transform="translate(-5.48 -21.58)"/></g><path id="_Path_64" data-name="&lt;Path&gt;" class="cls-15" d="M19.13,107.78" transform="translate(-5.48 -21.58)"/><path id="_Path_65" data-name="&lt;Path&gt;" class="cls-15" d="M15.06,115.61" transform="translate(-5.48 -21.58)"/><g id="_Group_32" data-name="&lt;Group&gt;"><path id="_Path_66" data-name="&lt;Path&gt;" class="cls-10" d="M191.58,103.77a3.65,3.65,0,0,1-1.11.59,4.63,4.63,0,0,1-1.25.25,7.05,7.05,0,0,1-1.47-.18,4.57,4.57,0,0,1-.73-.2,4.52,4.52,0,0,1-.68-.29,5.32,5.32,0,0,1-.58-.39c-.15-.16-.3-.31-.42-.46l-.26-.45a2.07,2.07,0,0,1-.13-.37l-.1-.32.1,0,.16.28a1.85,1.85,0,0,0,.19.31l.31.34.43.31c.18.07.34.18.54.24a4.58,4.58,0,0,0,1.27.22,10.5,10.5,0,0,0,1.31-.07c.42,0,.82,0,1.17,0a9.61,9.61,0,0,1,1.21.11Z" transform="translate(-5.48 -21.58)"/></g><g id="_Group_33" data-name="&lt;Group&gt;"><path id="_Path_67" data-name="&lt;Path&gt;" class="cls-10" d="M121.79,122a38.36,38.36,0,0,1-1.09,5.13c-.23.85-.51,1.68-.79,2.51s-.6,1.66-1,2.46a22.47,22.47,0,0,1-2.66,4.67,13.4,13.4,0,0,1-.88,1.07,9.75,9.75,0,0,1-1,1,9.88,9.88,0,0,1-1.19.84l-.66.35-.71.28-.55.21-.45-.46c-.29-.29-.51-.55-.75-.83s-.46-.56-.68-.84c-.43-.57-.83-1.16-1.21-1.77a27.12,27.12,0,0,1-2-3.77c-.28-.65-.53-1.32-.77-2s-.45-1.35-.62-2a28,28,0,0,1-.73-4.17v-.17a3.87,3.87,0,0,1,.14-.54,4.41,4.41,0,0,1,.19-.49,4.09,4.09,0,0,1,.57-.92,2.85,2.85,0,0,1,.88-.7,2.69,2.69,0,0,1,1.09-.26h.1l.07,0a11,11,0,0,0,2.24.62,5.6,5.6,0,0,0,1.16.07,2.71,2.71,0,0,0,1.14-.29,3.75,3.75,0,0,1-2.34.69,9.72,9.72,0,0,1-2.48-.29l.17,0a1.75,1.75,0,0,0-1.17.78,3,3,0,0,0-.32.69,3.21,3.21,0,0,0-.1.38,2.64,2.64,0,0,0-.05.37v-.17a30.72,30.72,0,0,0,1,3.89c.21.63.44,1.27.68,1.88s.52,1.23.82,1.83a31.57,31.57,0,0,0,1.94,3.48c.36.56.75,1.1,1.15,1.62.2.26.4.52.61.78s.43.51.62.71l-1-.24.5-.19.49-.25a8,8,0,0,0,.94-.65c.3-.25.6-.5.88-.79a11.58,11.58,0,0,0,.82-.9,18.9,18.9,0,0,0,1.46-2c.46-.7.89-1.43,1.3-2.18A76.16,76.16,0,0,0,121.79,122Z" transform="translate(-5.48 -21.58)"/></g><path id="_Path_68" data-name="&lt;Path&gt;" class="cls-16" d="M109.24,127.18" transform="translate(-5.48 -21.58)"/><g id="_Group_34" data-name="&lt;Group&gt;"><path id="_Path_69" data-name="&lt;Path&gt;" class="cls-10" d="M109.25,136.73s.5-.41,1.24-1.08,1.69-1.58,2.58-2.56a18.36,18.36,0,0,0,2.2-2.88c.14-.21.22-.42.32-.6a3.06,3.06,0,0,0,.21-.48l.16-.43-.12.44a3.11,3.11,0,0,1-.17.5c-.08.19-.15.41-.27.63a18.67,18.67,0,0,1-2,3.13,40.34,40.34,0,0,1-3.54,4.06.5.5,0,1,1-.71-.71Z" transform="translate(-5.48 -21.58)"/></g><g id="_Group_35" data-name="&lt;Group&gt;"><path id="_Path_70" data-name="&lt;Path&gt;" class="cls-10" d="M106.53,130.47l.28.06a4.81,4.81,0,0,0,.84,0,5.71,5.71,0,0,0,1.21-.21,6.51,6.51,0,0,0,1.34-.55,6.89,6.89,0,0,0,.64-.39,7.22,7.22,0,0,0,.59-.43,9.68,9.68,0,0,0,1-.87c.28-.26.47-.52.63-.69l.23-.27-.2.29c-.13.18-.29.47-.54.76a9.91,9.91,0,0,1-.87,1,7.54,7.54,0,0,1-.56.52,7.33,7.33,0,0,1-.62.49,7.11,7.11,0,0,1-1.37.77,6.48,6.48,0,0,1-1.34.4,5.71,5.71,0,0,1-1,.08,3.54,3.54,0,0,1-.42,0Z" transform="translate(-5.48 -21.58)"/></g><g id="_Group_36" data-name="&lt;Group&gt;"><path id="_Path_71" data-name="&lt;Path&gt;" class="cls-10" d="M82,118.63a26.61,26.61,0,0,1-1.81,3.07A33,33,0,0,1,78,124.56c-.38.46-.78.91-1.2,1.34s-.84.86-1.28,1.28-.89.82-1.37,1.2-1,.74-1.46,1.11l.16-.14a17.29,17.29,0,0,1-1.93,1.82,9,9,0,0,1-1.16.8,4.21,4.21,0,0,1-.75.34,2,2,0,0,1-1.21.05,1.52,1.52,0,0,1-.47-.25,1.44,1.44,0,0,1-.32-.37,1.91,1.91,0,0,1-.23-.6,4.07,4.07,0,0,1-.07-.83c0-.48,0-.91.08-1.34.08-.85.18-1.66.24-2.48l0,.36c-.15-.46-.34-1-.54-1.46s-.43-1-.65-1.46a22.4,22.4,0,0,0-1.56-2.78c-.3-.44-.59-.88-.92-1.29a15.09,15.09,0,0,0-1-1.2l-.26-.28a3.72,3.72,0,0,1-.34-.37,2.7,2.7,0,0,1-.51-1,1.46,1.46,0,0,1,.24-1.29,2.09,2.09,0,0,1,.89-.63l.37,0-.1,0h.51l.62-.05,1.26-.14,2.54-.29c-.8.3-1.61.58-2.43.84-.41.13-.82.25-1.24.36l-.63.16L63,116l-.18,0h-.17a.46.46,0,0,1-.18,0l.37,0a1.06,1.06,0,0,0-.41.36c0,.11,0,.15,0,.29a1.58,1.58,0,0,0,.34.45l.25.21.34.29a16.56,16.56,0,0,1,1.25,1.21c.39.43.77.86,1.12,1.32a24.19,24.19,0,0,1,1.85,2.91c.27.5.52,1,.75,1.55l.33.8c.11.27.21.53.31.84l.05.16v.2c-.05.86-.13,1.71-.21,2.53,0,.41-.08.81-.08,1.17a2.36,2.36,0,0,0,0,.42s0,.05,0,0a.53.53,0,0,0-.12-.13l-.14-.09-.08,0h0c-.2,0-.06,0,0,0a2.3,2.3,0,0,0,.4-.17,7.19,7.19,0,0,0,.91-.61,20.79,20.79,0,0,0,1.78-1.57l.08-.08.08-.05c.47-.32,1-.61,1.41-1s.92-.68,1.37-1c.91-.71,1.77-1.48,2.63-2.26A67,67,0,0,0,82,118.63Z" transform="translate(-5.48 -21.58)"/></g><g id="_Group_37" data-name="&lt;Group&gt;"><polygon id="_Path_72" data-name="&lt;Path&gt;" class="cls-10" points="57.96 96.55 62.07 96.13 58.64 98.43 57.96 96.55"/></g><path id="_Path_73" data-name="&lt;Path&gt;" class="cls-17" d="M66.69,123" transform="translate(-5.48 -21.58)"/><g id="_Group_38" data-name="&lt;Group&gt;"><polygon id="_Path_74" data-name="&lt;Path&gt;" class="cls-10" points="60.78 100.49 67.55 98.35 61.64 102.29 60.78 100.49"/></g><path id="_Path_75" data-name="&lt;Path&gt;" class="cls-17" d="M67.55,126.55" transform="translate(-5.48 -21.58)"/><g id="_Group_39" data-name="&lt;Group&gt;"><polygon id="_Path_76" data-name="&lt;Path&gt;" class="cls-10" points="61.74 104.13 70.57 99.87 62.79 105.83 61.74 104.13"/></g><g id="_Group_40" data-name="&lt;Group&gt;"><path id="_Path_77" data-name="&lt;Path&gt;" class="cls-10" d="M49.68,112.55s1.21-.57,3-1.28A61.68,61.68,0,0,1,59.54,109c.63-.18,1.27-.3,1.9-.45s1.26-.23,1.86-.35,1.2-.15,1.75-.23l1.58-.1c.49,0,.94,0,1.33,0a7,7,0,0,1,1,.09l.88.11-.89,0a6.93,6.93,0,0,0-1,0c-.39,0-.83,0-1.31.11l-1.53.24c-.54.12-1.11.24-1.69.39s-1.18.32-1.78.51-1.21.38-1.81.62a60.34,60.34,0,0,0-6.44,2.82c-1.72.87-2.79,1.51-2.79,1.51Z" transform="translate(-5.48 -21.58)"/></g><g id="_Group_41" data-name="&lt;Group&gt;"><path id="_Path_78" data-name="&lt;Path&gt;" class="cls-10" d="M71.89,112.23l11.76,2.05c3.53.62,7.65,1.28,12.07,2s9.13,1.44,13.86,2.08,9.45,1.28,13.9,1.72c2.22.21,4.37.41,6.42.56s4,.25,5.76.29,3.42,0,4.87,0,2.71-.18,3.74-.3a21.09,21.09,0,0,0,2.37-.47l.83-.22-.81.28a17.91,17.91,0,0,1-2.35.61c-1,.17-2.29.36-3.75.48s-3.1.2-4.9.2-3.74,0-5.8-.12-4.22-.22-6.46-.43c-4.47-.4-9.22-1-14-1.6s-9.45-1.45-13.87-2.22-8.51-1.6-12-2.31-6.42-1.39-8.46-1.84Z" transform="translate(-5.48 -21.58)"/></g><g id="_Group_42" data-name="&lt;Group&gt;"><path id="_Path_79" data-name="&lt;Path&gt;" class="cls-10" d="M149.44,124.71s.8-.53,2-1.17a27.73,27.73,0,0,1,4.68-1.95c.44-.14.89-.24,1.33-.36s.88-.18,1.31-.24.84-.1,1.24-.12.77,0,1.11,0l.93.09a5.21,5.21,0,0,1,.7.14l.61.14-.62-.07a5.1,5.1,0,0,0-.71-.06h-.92c-.33,0-.7.08-1.08.12s-.77.16-1.18.24-.82.24-1.23.36-.83.3-1.24.48a26.72,26.72,0,0,0-4.28,2.33c-1.11.75-1.77,1.29-1.77,1.29a.75.75,0,1,1-1-1.16l.06,0Z" transform="translate(-5.48 -21.58)"/></g><g id="_Group_43" data-name="&lt;Group&gt;"><path id="_Path_80" data-name="&lt;Path&gt;" class="cls-10" d="M147.11,129.51s2.7-1.31,5.46-2.46c1.38-.58,2.78-1.12,3.86-1.44.27-.09.52-.14.74-.2a4.51,4.51,0,0,1,.59-.1,1.28,1.28,0,0,1,.38,0h0a1.24,1.24,0,0,0-.37,0,4.39,4.39,0,0,0-.56.17c-.21.08-.45.16-.7.28-1,.45-2.32,1.15-3.61,1.89-2.57,1.48-5.06,3.1-5.06,3.1a.75.75,0,0,1-.82-1.26Z" transform="translate(-5.48 -21.58)"/></g><path id="_Path_81" data-name="&lt;Path&gt;" class="cls-10" d="M47.1,110.58,47,110.4a.59.59,0,0,0-.45-.58l-.47-.13a1.63,1.63,0,0,0-.72,0,2.51,2.51,0,0,0-.77.3,2.39,2.39,0,0,0-.84,1c-.15.25-.2.64.08.77a2.91,2.91,0,0,0,2,.53.84.84,0,0,0,.62-.26,1.33,1.33,0,0,0,.33-.65,1.45,1.45,0,0,0,.15-.4C47,111,47.15,110.68,47.1,110.58Z" transform="translate(-5.48 -21.58)"/><g id="_Group_44" data-name="&lt;Group&gt;"><path id="_Path_82" data-name="&lt;Path&gt;" class="cls-10" d="M185,93.72a3.73,3.73,0,0,1-.15,1.16,2.5,2.5,0,0,1-.41.87c-.21.26-.56.44-.79.72a7.05,7.05,0,0,0-1.13,1.61,2.88,2.88,0,0,0-.2.63l0,.26-.2,0-.11-.27a1.19,1.19,0,0,1-.09-.33,4,4,0,0,1-.06-.45,4.27,4.27,0,0,1,.09-1.12,6.16,6.16,0,0,1,.39-1.21,6.34,6.34,0,0,1,.51-1.16,2.26,2.26,0,0,1,.87-.66,2.53,2.53,0,0,1,1.2-.24Z" transform="translate(-5.48 -21.58)"/></g><path id="_Path_83" data-name="&lt;Path&gt;" class="cls-10" d="M178.63,96.09l-.07-.11a.35.35,0,0,0-.27-.35l-.28-.08a1,1,0,0,0-.44,0,1.52,1.52,0,0,0-.47.18,1.45,1.45,0,0,0-.51.59c-.09.15-.12.39,0,.47a1.76,1.76,0,0,0,1.2.32.51.51,0,0,0,.38-.16.81.81,0,0,0,.2-.4.88.88,0,0,0,.09-.24C178.57,96.33,178.66,96.14,178.63,96.09Z" transform="translate(-5.48 -21.58)"/><g id="_Group_45" data-name="&lt;Group&gt;"><path id="_Path_84" data-name="&lt;Path&gt;" class="cls-10" d="M61.94,95a26.1,26.1,0,0,1-3.7,1.59,35.48,35.48,0,0,1-3.94,1.15c-.74.14-1.5.3-2.28.41s-1.57.25-2.37.34c-1.59.22-3.19.39-4.69.48-.75.06-1.48.07-2.17.08s-1.35,0-1.95-.06a15.51,15.51,0,0,1-1.64-.16,7.87,7.87,0,0,1-1.25-.21l-1.07-.25,0-.15,1.08.15a7.66,7.66,0,0,0,1.24.09,15.09,15.09,0,0,0,1.61,0c.59,0,1.23,0,1.91-.12s1.39-.12,2.12-.24c1.47-.19,3-.47,4.57-.8s3.07-.75,4.52-1.09,2.81-.58,4-.79c2.35-.42,4-.57,4-.57Z" transform="translate(-5.48 -21.58)"/></g><path id="_Path_85" data-name="&lt;Path&gt;" class="cls-10" d="M55.22,101.8l-.07-.11a.35.35,0,0,0-.27-.35l-.28-.08a1,1,0,0,0-.44,0,1.52,1.52,0,0,0-.47.18,1.45,1.45,0,0,0-.51.59c-.09.15-.12.39,0,.47a1.76,1.76,0,0,0,1.2.32.51.51,0,0,0,.38-.16.81.81,0,0,0,.2-.4.88.88,0,0,0,.09-.24C55.16,102,55.25,101.86,55.22,101.8Z" transform="translate(-5.48 -21.58)"/></g></svg>